<svg id="Layer_1" data-name="Layer 1" xmlns="http://www.w3.org/2000/svg" viewBox="0 0 315 172"><defs><style>.cls-1{fill:#004775;}.cls-2{fill:#6d6d6d;}</style></defs><g id="Grupo_372" data-name="Grupo 372"><polygon class="cls-1" points="240.6 81.87 242.69 81.87 241.7 74.84 240.6 81.87"/><path class="cls-1" d="M251.39,73h-1.57V77.5h1.57c1.37,0,1.39-.73,1.39-1.57V74.37C252.78,73,252.06,73,251.39,73Z"/><path class="cls-1" d="M288.67,91.78s.14-1.63-2.88-1.26A10.36,10.36,0,0,1,282,89.19l-1.06-1-.2-.33-.22-.09a112.92,112.92,0,0,1-13-15.86l-1.78-2.57a235.33,235.33,0,0,1-13.56-23.1,2.55,2.55,0,0,1-1.78-2l-1.1-2.85s-12,4.93-16.77.53c0,0-4.34,1.56-7-.17l-1.88-1.57s2.64-1-.38-2.77l-2.82-1.73-.76-2.25-3.39.51s-1.32-2.08-2.65-2.42l-7.35-3.65-10,4.51L172,21.81s-.18-1.91-4-2.08l-3,5s1.7,3.29-1.51,2.08c0,0-.35-1.39-.9-.69l-.77.92s-.33.5.66.5l.55.31,1.33,1.62L162.94,31s-.89-.81-3.64-.51a4.09,4.09,0,0,0-3-1.21S157.86,30.41,155,31c0,0-1.31.51-1.31,1,0,0,1.21-.92,2.86.81,0,0-.22.71,2,.51,0,0,2,.2.89.91,0,0-1.1.1.77,1.32a2.25,2.25,0,0,1,1.77-.41,8.78,8.78,0,0,1,2.53,1.11s.77.31.34,1.42a22.52,22.52,0,0,0,.43,5.37s1.33.71-2.2,2c0,0-2.76.61-3,1.31a3.52,3.52,0,0,1-2,.1s-.45.31.22,1.32a1.77,1.77,0,0,1-.14,2.48,1.69,1.69,0,0,1-.64.36,4.53,4.53,0,0,0-3,5.64c.05.15.1.3.16.45a22.91,22.91,0,0,1,2.32,6s0,1.32,3,4.36c0,0,2.2,2,1.43,4l1.11.1a6.45,6.45,0,0,0,3.78,1.28,18,18,0,0,1,1.94.55,4.14,4.14,0,0,0,1.76.66,31.88,31.88,0,0,1,7.35,4.5.78.78,0,0,1-.18.11,7.36,7.36,0,0,1,.68.3c.54.44,1.09.91,1.64,1.42a12.52,12.52,0,0,0,2,3,7,7,0,0,1,1,1.82s1.21,2.65,2.2.61c0,0,0-3.75,2.54-3.85,0,0,1.65.91,3.54-1.83A7.24,7.24,0,0,0,193,77.45s3.2-.1.33-1.32c0,0-.33-1.52-1.32-1.62,0,0,3-1.93-1.1-2.74,0,0-2.21-.6-2.76,0,0,0,1.22-1.31-1.21-1.62a11.14,11.14,0,0,1-6.58-9.62c.16.76.7,1.65,2.39,1.41a13.25,13.25,0,0,1,8.38,4s1.87,3.85,9.15,5.57c0,0,1.74.77-1.12,1.12,0,0,1.41.36,2,.45,0,0,1.25.4,1.75,2.9A12.1,12.1,0,0,0,204,78.65s1.05,1-.15,3.3a3.46,3.46,0,0,0,.41,4.43l2.38,2.32s.77,1.43,2.54.31L218.3,92l2.06,1.21s1.78-1,2.33,2.27c0,0-.69.5,1.1.88a21,21,0,0,0,4,1.14s7,3.17,15.72,12.71c0,0,3.15,4.21,0,10.89-.32.44-.67.89-1.06,1.36l-1,1.89s-1.5-1.27-2.74,1.76c0,0-1.78,1-.55,1.64,0,0,3,4,4.53,4.29a2.8,2.8,0,0,0,3.08,2.49,2.73,2.73,0,0,0,.48-.1,5,5,0,0,1,4.94,1.39,29.1,29.1,0,0,1,3.7,1.64s1.79,1.39,1.79-1.51a1.84,1.84,0,0,0,.26-.82,1.2,1.2,0,0,0,0-.38,7.91,7.91,0,0,0-.73-2.69,1.11,1.11,0,0,0-.26-.57c0-.07-.07-.14-.11-.2a2.08,2.08,0,0,0-.44-.76,2.73,2.73,0,0,0-1.85-.88,4,4,0,0,1-2.88-2.28s.41-1.63-.83-1.89c0,0-2.6-1.13.14-1.38,0,0,2.89.25,3.43-.89l2.33,1.14s-2.19,1.26,1.1,1.77c0,0,4.93,3.4,5.63,5.29,0,0,2.32,2.28,1.36,4.29a10.51,10.51,0,0,1-2.33,2.77s-.27,1,5.35,4.55a10.57,10.57,0,0,1,4,8.44s.09,1.85,1.1.13a4.88,4.88,0,0,0,.5-4.06s-1.48-5.27-2.72-4.76c0,0-3.7-2.53-1.37-2.9a4.72,4.72,0,0,0,3-3.15s4.25,1.13,4.66-2.78c0,0,.9-3.11.24-3.78a8.21,8.21,0,0,0-1.14-3.53l0,0-.12-.18s0,0,0,0h0a4.19,4.19,0,0,0-.83-.74s-1.65-1-.14-1.89l1.51-1,4-2.75.39,0a10.07,10.07,0,0,1,2.05-1.63,1.41,1.41,0,0,0-.18-2l-.22-.16s-1.51-1.38-2.33-1l-4-3.91h-1.64l1.09-15.13,3.57-.64S275.91,92.29,278,91a1.92,1.92,0,0,1,2.2.38l2.74.62s1.92,3.79,4,3.66c0,0,2.33.63,2.33-1.39C289.22,94.3,286.89,92.28,288.67,91.78Zm-73-15.11h-3V74.58c0-1.23-.21-1.92-1.54-1.92s-1.39,1-1.39,1.78v8.78c0,1,.16,1.86,1.51,1.86s1.41-1,1.41-2V80.92h3v2.33c0,1.32,0,4.18-4.45,4.18a6.22,6.22,0,0,1-3.18-.8,3.17,3.17,0,0,1-1.3-3V74.67a4,4,0,0,1,.81-3,5,5,0,0,1,3.67-1.31c4.45,0,4.45,2.65,4.45,3.81Zm10.06-2.21v9.11a3.49,3.49,0,0,1-.88,2.69,4.94,4.94,0,0,1-3.6,1.17c-3.7,0-4.59-1.77-4.59-3.86V74.39a4,4,0,0,1,.85-2.81,5,5,0,0,1,3.71-1.25,5.35,5.35,0,0,1,3.41,1A3.53,3.53,0,0,1,225.7,74.46Zm10.72,12.61h-3.81l-2.92-12.28L230,87.07h-2.84V70.68H231l2.94,12-.29-12h2.77Zm7,0L243,84.4h-2.79l-.43,2.67h-3L240,70.68h3.47l3.06,16.39Zm9.85,0a3.93,3.93,0,0,1-.44-1.81v-3.5c0-1.12,0-1.91-1.58-1.91h-1.43v7.22h-3V70.65h6c2.95,0,2.95,2,2.95,3.49v1.77c0,2.08-.65,2.46-2.12,2.78a2.63,2.63,0,0,1,2.23,2.83v3.35a2.67,2.67,0,0,0,.71,2.2Zm12.16,0h-8.15V70.65h7.95v2.52h-4.93V77h4.62V79.5h-4.62v5h5.12Z"/><path class="cls-1" d="M221.2,72.64c-1.56,0-1.56,1.25-1.56,2.16v8.27c0,.93.05,2,1.53,2s1.49-1.15,1.49-1.94V74.68C222.66,73.82,222.66,72.64,221.2,72.64Z"/><g id="Grupo_3" data-name="Grupo 3"><path id="Trazado_15" data-name="Trazado 15" class="cls-1" d="M59,86.16c-1.4,5-5.52,9.46-16,9.46a20,20,0,0,1-12.71-3.51A10.37,10.37,0,0,1,27,87.91a13.69,13.69,0,0,1-1.23-6.4v-9H37.1v7.18c0,2.28-.17,4.91,2,6.31a6.22,6.22,0,0,0,3.5.88,5.57,5.57,0,0,0,4-1.14c1.66-1.31,1.66-4,1.66-8.23A10.11,10.11,0,0,0,47,71.79a10,10,0,0,0-2.62-2.45L33.6,62.06A14.3,14.3,0,0,1,28.43,57c-1.31-2.19-2.19-4.55-2.19-9.81a20.94,20.94,0,0,1,1.49-8.5c3.51-7.54,14.11-7.54,15.34-7.54,1.84,0,11.74,0,15,8.15a10.61,10.61,0,0,1,1,5.17v6.14H47.62V44.28c0-1.84-.71-4.47-5.08-4.47-2.63,0-5.08,1-5.08,6.13a11.6,11.6,0,0,0,1.22,6,10.2,10.2,0,0,0,2.37,2l11,7.62a23,23,0,0,1,5.08,4.82c2.72,3.59,2.45,6.31,2.45,10.69A34.82,34.82,0,0,1,59,86.16Z"/><path id="Trazado_16" data-name="Trazado 16" class="cls-1" d="M78.46,42V57.5h17.7v9.2H78.46V94.3H67V32.44H97.3V42Z"/><path id="Trazado_17" data-name="Trazado 17" class="cls-1" d="M133.85,86.16c-1.41,5-5.52,9.46-16,9.46a20,20,0,0,1-12.7-3.51,10.39,10.39,0,0,1-3.25-4.2,13.56,13.56,0,0,1-1.22-6.4v-9h11.3v7.18c0,2.28-.18,4.91,2,6.31a6.28,6.28,0,0,0,3.51.88,5.53,5.53,0,0,0,3.94-1.14c1.67-1.31,1.67-4,1.67-8.23a10.19,10.19,0,0,0-1.23-5.7,10.21,10.21,0,0,0-2.63-2.45l-10.77-7.28A14.3,14.3,0,0,1,103.27,57c-1.32-2.19-2.19-4.55-2.19-9.81a20.77,20.77,0,0,1,1.49-8.5c3.5-7.54,14.11-7.54,15.33-7.54,1.84,0,11.74,0,15,8.15a10.61,10.61,0,0,1,1,5.17v6.14H122.46V44.28c0-1.84-.71-4.47-5.08-4.47-2.63,0-5.09,1-5.09,6.13a11.61,11.61,0,0,0,1.23,6,10.2,10.2,0,0,0,2.37,2l11,7.62A23,23,0,0,1,132,66.36c2.72,3.59,2.45,6.31,2.45,10.69A34.82,34.82,0,0,1,133.85,86.16Z"/></g><g id="Grupo_4" data-name="Grupo 4"><path id="Trazado_25" data-name="Trazado 25" class="cls-2" d="M27.79,115.11H36.7l0,2.57H30.77l0,4.14h5.86l0,2.56H30.7l0,6.84H27.63Z"/><path id="Trazado_26" data-name="Trazado 26" class="cls-2" d="M44,119.17c3.72,0,5.61,2.72,5.61,6.19a5.7,5.7,0,0,1-5.19,6.17l-.42,0c-3.82,0-5.61-2.86-5.61-6.19a5.89,5.89,0,0,1,5.58-6.19Zm0,10.1c2.05,0,2.77-2.19,2.77-3.82,0-2.44-.86-4-2.77-4-2.12,0-2.77,2.37-2.77,4C41.2,126.87,41.85,129.27,44,129.27Z"/><path id="Trazado_27" data-name="Trazado 27" class="cls-2" d="M52.09,119.49h2.8v1.41h0a5,5,0,0,1,3.8-1.74c2.47,0,3.12,1.72,3.12,3.53,0,1.16,0,1.88,0,2.63l-.08,5.89H58.91l0-2.94c0-1.81,0-3.21,0-4.6s-.35-2-1.54-2a4.46,4.46,0,0,0-2.58,1.54l0,8H52Z"/><path id="Trazado_28" data-name="Trazado 28" class="cls-2" d="M72.12,129.94h-.05a3.6,3.6,0,0,1-2.91,1.56c-2.86,0-4.91-2.49-4.91-6,0-3.17,1.82-6.31,5.1-6.31a3.24,3.24,0,0,1,2.6,1.12h0l.07-6.56h2.84l-.07,17.45H72.12ZM72,122.7a2.41,2.41,0,0,0-2-1.07c-1.53,0-2.88,1.47-2.88,3.75s1.19,3.71,2.82,3.71a2.28,2.28,0,0,0,2-1.84Z"/><path id="Trazado_29" data-name="Trazado 29" class="cls-2" d="M82.8,119.17c3.73,0,5.61,2.72,5.61,6.19a5.7,5.7,0,0,1-5.19,6.17l-.42,0c-3.82,0-5.61-2.86-5.61-6.19a5.89,5.89,0,0,1,5.58-6.19Zm0,10.1c2,0,2.77-2.19,2.77-3.82,0-2.44-.86-4-2.77-4-2.12,0-2.77,2.37-2.77,4C80,126.87,80.68,129.27,82.8,129.27Z"/><path id="Trazado_30" data-name="Trazado 30" class="cls-2" d="M104.48,129.94h0a3.6,3.6,0,0,1-2.91,1.56c-2.86,0-4.91-2.49-4.91-6,0-3.17,1.81-6.31,5.1-6.31a3.27,3.27,0,0,1,2.61,1.12h0l.07-6.56h2.84l-.07,17.45h-2.72Zm-.17-7.24a2.41,2.41,0,0,0-2-1.07c-1.53,0-2.88,1.47-2.88,3.75s1.19,3.71,2.82,3.71a2.28,2.28,0,0,0,2-1.84Z"/><path id="Trazado_31" data-name="Trazado 31" class="cls-2" d="M112.39,125.71c0,1.6.75,3.56,2.7,3.56a3.89,3.89,0,0,0,2.72-1.51l1.63,1.48a6.42,6.42,0,0,1-4.76,2.31c-3,0-5.12-2.47-5.12-6.15,0-3.12,1.93-6.24,5.35-6.24s4.84,2.45,4.84,6.54Zm4.66-2c-.07-1.26-.66-2.54-2.14-2.54a2.74,2.74,0,0,0-2.38,2.54Z"/><path id="Trazado_32" data-name="Trazado 32" class="cls-2" d="M122.21,113.77h2.84l-.14,17.45h-2.84Z"/><path id="Trazado_33" data-name="Trazado 33" class="cls-2" d="M135.32,128a5.92,5.92,0,0,0,2.84,1.1,2.34,2.34,0,0,0,2.57-2.08,2.11,2.11,0,0,0,0-.25c0-3.21-6.61-1.84-6.61-7.33a4.87,4.87,0,0,1,5-4.7l.33,0a9.21,9.21,0,0,1,4.54,1.35l-1.26,2.14a6.16,6.16,0,0,0-3-1.07c-1.35,0-2.63.72-2.63,2.17,0,3.16,6.75,2.16,6.75,7.31a5,5,0,0,1-5.06,4.87h-.27a8.54,8.54,0,0,1-4.37-1.24Z"/><path id="Trazado_34" data-name="Trazado 34" class="cls-2" d="M146.78,119.49h2.84l-.12,11.73h-2.84Zm0-4.38h2.84l0,2.75h-2.84Z"/><path id="Trazado_35" data-name="Trazado 35" class="cls-2" d="M153.36,128.43a5.82,5.82,0,0,0,2.94,1c.86,0,1.63-.42,1.63-1.38,0-2.35-5.48-.53-5.48-5.23,0-2.42,2.05-3.64,4.33-3.64a6.38,6.38,0,0,1,4,1.28l-1.21,1.8a4.66,4.66,0,0,0-2.58-.93c-.82,0-1.82.44-1.82,1.39,0,2.24,5.61.84,5.61,5.1a3.94,3.94,0,0,1-4.1,3.77l-.31,0a7.94,7.94,0,0,1-4-1.12Z"/><path id="Trazado_36" data-name="Trazado 36" class="cls-2" d="M169.62,130.57l-1,.51a3.52,3.52,0,0,1-1.76.47c-2,0-3.19-1-3.19-3.51,0-.53,0-1.8,0-2.83l.07-3.58h-1.59v-2.15l1.59,0,.09-4.19h2.84l-.09,4.19,2.6,0v2.15h-2.6l-.07,3.44c0,1.16,0,2.24,0,3.1s.26,1.23,1,1.23a2.25,2.25,0,0,0,1.3-.56Z"/><path id="Trazado_37" data-name="Trazado 37" class="cls-2" d="M173.15,125.71c0,1.6.75,3.56,2.7,3.56a3.94,3.94,0,0,0,2.73-1.51l1.63,1.48a6.44,6.44,0,0,1-4.77,2.31c-3,0-5.12-2.47-5.12-6.15,0-3.12,1.93-6.24,5.35-6.24s4.84,2.45,4.84,6.54Zm4.66-2c-.07-1.26-.65-2.54-2.14-2.54a2.76,2.76,0,0,0-2.38,2.54Z"/><path id="Trazado_38" data-name="Trazado 38" class="cls-2" d="M182.7,119.49h2.82v1.56l0,0a4.23,4.23,0,0,1,3.5-1.93,2.7,2.7,0,0,1,2.86,2,4.88,4.88,0,0,1,3.84-2,3,3,0,0,1,3.18,2.71,2.43,2.43,0,0,1,0,.66c0,2.89,0,5.8,0,8.69h-2.84l0-4.61c0-1.21,0-2.83,0-3.45a1.33,1.33,0,0,0-1.2-1.44.81.81,0,0,0-.22,0,4.07,4.07,0,0,0-2.42,1.56l-.09,7.94h-2.83l0-4.61c0-1.21,0-2.83,0-3.45a1.32,1.32,0,0,0-1.2-1.44.74.74,0,0,0-.21,0,4.07,4.07,0,0,0-2.42,1.56l-.1,7.94h-2.82Z"/><path id="Trazado_39" data-name="Trazado 39" class="cls-2" d="M201.74,121.54c2.56-2.09,3.87-2.37,5.12-2.37a3.17,3.17,0,0,1,3.36,3,2.41,2.41,0,0,1,0,.38c0,.42,0,.67,0,1l-.1,3.38c0,.52,0,1,0,1.46,0,.65.32,1.12.63,1.12a2.26,2.26,0,0,0,.83-.31l.68,1.42a4.3,4.3,0,0,1-2.45.95,2,2,0,0,1-2-1.56,4,4,0,0,1-3,1.56,3.26,3.26,0,0,1-3.51-3c0-.14,0-.28,0-.42,0-1.89,1.21-3.52,6.29-4.35V123c0-1.3-.56-1.56-1.35-1.56-.58,0-1.28.24-3.05,1.61Zm5.73,4c-2.7.61-3.56,1.26-3.56,2.44a1.34,1.34,0,0,0,1.3,1.39h.19a3,3,0,0,0,2-1.1Z"/></g></g></svg>