<svg id="Layer_1" data-name="Layer 1" xmlns="http://www.w3.org/2000/svg" viewBox="0 0 315 172"><defs><style>.cls-1{fill:#fff;}</style></defs><path class="cls-1" d="M252.09,73.22h-1.5v4.49h1.5c1.5,0,1.5-.75,1.5-1.5V74.46C253.59,73.22,252.84,73.22,252.09,73.22Z"/><polygon class="cls-1" points="241.36 81.95 243.36 81.95 242.36 74.96 241.36 81.95"/><path class="cls-1" d="M221.89,72.72c-1.5,0-1.5,1.25-1.5,2.24V83.2c0,1,0,2,1.5,2s1.5-1.25,1.5-2V74.71C223.39,74,223.39,72.72,221.89,72.72Z"/><path class="cls-1" d="M289.53,91.94s.25-1.75-3-1.25a16.51,16.51,0,0,1-3.75-1.25l-1-1-.25-.25h-.25a112.56,112.56,0,0,1-13-16l-1.75-2.5a269.48,269.48,0,0,1-13.73-23.21,2.12,2.12,0,0,1-1.75-2l-1-2.74s-12,5-17,.49c0,0-4.24,1.5-7-.24l-2-1.5s2.74-1-.5-2.75L220.89,36l-.75-2.24-3.49.5a6.73,6.73,0,0,0-2.75-2.5L206.41,28l-10,4.49L172,21.8s-.25-2-4-2l-3,5s1.75,3.25-1.5,2c0,0-.25-1.5-1-.75l-.75,1s-.25.5.75.5l.5.25,1.25,1.74-1.5,1.5s-1-.75-3.74-.5a4.6,4.6,0,0,0-3-1.24s1.5,1-1.25,1.74c0,0-1.24.5-1.24,1,0,0,1.24-1,3,.75,0,0-.25.75,2,.5,0,0,2,.25,1,1,0,0-1,0,.75,1.25,0,0,1-.75,1.74-.5a8.64,8.64,0,0,1,2.5,1s.75.25.25,1.5a29.55,29.55,0,0,0,.5,5.49s1.25.75-2.25,2c0,0-2.74.5-3,1.25a2.76,2.76,0,0,1-2,0s-.5.25.25,1.25a1.64,1.64,0,0,1-.75,2.74s-4.49,1.25-3,6.24a29.45,29.45,0,0,1,2.25,6s0,1.25,3,4.5c0,0,2.24,2,1.49,4h1A6.74,6.74,0,0,0,166,72.22c.75.25,1.25.25,2,.5.5.25,1.25.5,1.75.75A36.72,36.72,0,0,1,177.21,78H177a1.93,1.93,0,0,1,.75.25,10.87,10.87,0,0,0,1.75,1.5,12.67,12.67,0,0,0,2,3,6.27,6.27,0,0,1,1,1.75s1.25,2.74,2.25.5c0,0,0-3.75,2.49-4,0,0,1.75,1,3.5-1.74,0,0,2-1.25,2.24-2.25,0,0,3.25,0,.25-1.25,0,0-.25-1.5-1.24-1.74,0,0,3-2-1-2.75,0,0-2.25-.5-2.75,0,0,0,1.25-1.25-1.25-1.5A11,11,0,0,1,180.45,60a2,2,0,0,0,2.5,1.49,13.55,13.55,0,0,1,8.49,4s2,4,9.23,5.49c0,0,1.75.75-1,1.25a11.25,11.25,0,0,1,2,.5s1.25.5,1.75,3a12.19,12.19,0,0,0,1,2.75s1,1-.25,3.24a3.44,3.44,0,0,0,.5,4.5l2.49,2.24s.75,1.5,2.5.25l9.23,3,2,1.25s1.75-1,2.25,2.24c0,0-.75.5,1,1a19,19,0,0,0,4,1.25s7,3.24,15.72,12.73c0,0,3.25,4.24,0,11a5.19,5.19,0,0,1-1,1.25l-1,2s-1.5-1.25-2.75,1.74c0,0-1.74,1-.5,1.75,0,0,3,4,4.5,4.24a2.8,2.8,0,0,0,3.49,2.5,4.78,4.78,0,0,1,5,1.5,25.23,25.23,0,0,1,3.75,1.75s1.74,1.49,1.74-1.5a.92.92,0,0,0,.25-.75v-.5a5.8,5.8,0,0,0-.74-2.75c0-.25,0-.5-.25-.5v-.25c0-.24-.25-.49-.5-.74a6.27,6.27,0,0,0-1.75-1,4.46,4.46,0,0,1-3-2.25s.5-1.75-.75-2c0,0-2.49-1.24.25-1.49,0,0,3,.25,3.5-1l2.25,1.25s-2.25,1.24,1,1.74c0,0,5,3.5,5.74,5.25,0,0,2.25,2.24,1.5,4.24a12,12,0,0,1-2.24,2.74s-.25,1,5.49,4.5a11,11,0,0,1,4,8.48s0,1.75,1,.25c0,0,1-1.24.5-4,0,0-1.5-5.24-2.75-4.74,0,0-3.74-2.5-1.49-3a4.87,4.87,0,0,0,3-3.24s4.24,1.25,4.74-2.75c0,0,1-3.24.25-3.74a6,6,0,0,0-1.25-3.5h0v-.25h0l-.74-.75s-1.75-1-.25-2l1.49-1,4-2.75h.5a6.79,6.79,0,0,1,2-1.74,1.32,1.32,0,0,0-.25-2,.24.24,0,0,1-.25-.25s-1.49-1.5-2.24-1l-4-4h-1.74l1-15.23,3.49-.75s-2.25-3.24-.25-4.49c0,0,1.5-.75,2.25.5l2.74.75s2,3.74,4,3.74c0,0,2.24.75,2.24-1.5C290,94.43,287.79,92.44,289.53,91.94ZM216.15,76.71h-3v-2c0-1.24-.25-2-1.49-2s-1.5,1-1.5,1.74V83.2c0,1,.25,1.75,1.5,1.75,1.49,0,1.49-1,1.49-2V80.7h3V83c0,1.25,0,4.24-4.49,4.24a7.84,7.84,0,0,1-3.25-.74,3.24,3.24,0,0,1-1.25-3v-9c0-1.24,0-2.24.75-3a5.13,5.13,0,0,1,3.75-1.25c4.49,0,4.49,2.75,4.49,3.75Zm9.23,9.74a5.26,5.26,0,0,1-3.74,1.24c-3.74,0-4.74-1.74-4.74-4V74.46a5,5,0,0,1,.75-2.74,4.73,4.73,0,0,1,3.74-1.25,5.69,5.69,0,0,1,3.49,1c.75.75,1,1.5,1,3.24V84A2,2,0,0,1,225.38,86.45Zm8,.74-3-12.23.25,12.23h-2.75V70.72h4l3,12-.25-12h2.75V87.19Zm10.73,0-.49-2.74h-2.75l-.5,2.74h-3l3.24-16.47h3.49l3,16.47Zm10,0a4.54,4.54,0,0,1-.5-1.74V82c0-1,0-2-1.5-2h-1.5v7.23h-3V70.72h6c3,0,3,2,3,3.49V76c0,2-.75,2.5-2.25,2.75a2.68,2.68,0,0,1,2.25,2.74V84.7c0,.75,0,1.75.74,2.24h-3.24Zm12.23,0h-8.24V70.72h8v2.5h-5v4h4.74v2.5h-4.74v5h5.24v2.49Z"/><path id="Trazado_15" data-name="Trazado 15" class="cls-1" d="M58.65,86.45c-1.5,5-5.5,9.48-16.23,9.48-4.49,0-9-.5-12.73-3.49a9.18,9.18,0,0,1-3.24-4.25A14.31,14.31,0,0,1,25.2,81.7v-9H36.68V80c0,2.24-.25,5,2,6.24a5.75,5.75,0,0,0,3.49,1,5.39,5.39,0,0,0,4-1.24c1.75-1.25,1.75-4,1.75-8.24A9.74,9.74,0,0,0,46.66,72a12.81,12.81,0,0,0-2.74-2.5L33.18,62.23a14.28,14.28,0,0,1-5.24-5c-1.24-2.25-2.24-4.49-2.24-10a22.12,22.12,0,0,1,1.49-8.49c3.5-7.49,14.23-7.49,15.48-7.49,1.75,0,11.73,0,15,8.24a12,12,0,0,1,1,5.24V51H47.16V44.76c0-1.75-.75-4.49-5-4.49-2.74,0-5,1-5,6.24,0,.25-.25,4,1.25,6a9.74,9.74,0,0,0,2.49,2l11,7.73a18.29,18.29,0,0,1,5,4.75c2.74,3.49,2.49,6.24,2.49,10.73C59.39,82,59.39,84,58.65,86.45Z"/><path id="Trazado_16" data-name="Trazado 16" class="cls-1" d="M78.36,42V57.49H96.09v9.24H78.36v27.7H66.88V32.28H97.33v9.49h-19Z"/><path id="Trazado_17" data-name="Trazado 17" class="cls-1" d="M134,86.45c-1.5,5-5.49,9.48-16.23,9.48-4.49,0-9-.5-12.73-3.49a9.25,9.25,0,0,1-3.24-4.25,14.31,14.31,0,0,1-1.25-6.49v-9h11.48V80c0,2.24-.25,5,2,6.24a5.77,5.77,0,0,0,3.49,1,5.43,5.43,0,0,0,4-1.24c1.74-1.25,1.74-4,1.74-8.24A9.79,9.79,0,0,0,122.05,72a13.1,13.1,0,0,0-2.75-2.5l-10.73-7.24a14.13,14.13,0,0,1-5.24-5c-1.25-2.25-2.25-4.49-2.25-10a22,22,0,0,1,1.5-8.49c3.49-7.49,14.22-7.49,15.47-7.49,1.75,0,11.73,0,15,8.24a12,12,0,0,1,1,5.24V51H122.55V44.76c0-1.75-.75-4.49-5-4.49-2.74,0-5,1-5,6.24,0,.25-.25,4,1.25,6a9.91,9.91,0,0,0,2.49,2l11,7.73a18.29,18.29,0,0,1,5,4.75c2.75,3.49,2.5,6.24,2.5,10.73A63.17,63.17,0,0,1,134,86.45Z"/><path id="Trazado_25" data-name="Trazado 25" class="cls-1" d="M27.44,115.4h9v2.5h-6v4.24h6v2.5h-6v7h-3Z"/><path id="Trazado_26" data-name="Trazado 26" class="cls-1" d="M43.67,119.64c3.74,0,5.74,2.75,5.74,6.24,0,3.25-2,6.24-5.74,6.24s-5.74-3-5.74-6.24S40.17,119.64,43.67,119.64Zm0,10c2,0,2.74-2.25,2.74-3.75,0-2.49-.74-4-2.74-4-2.25,0-2.75,2.5-2.75,4s.5,3.75,2.75,3.75Z"/><path id="Trazado_27" data-name="Trazado 27" class="cls-1" d="M51.91,119.89h2.74v1.5h0a5.32,5.32,0,0,1,3.75-1.75c2.49,0,3.24,1.75,3.24,3.5v8.73H58.89v-7.73c0-1.5-.24-2-1.49-2a3.81,3.81,0,0,0-2.5,1.5v8H52.16Z"/><path id="Trazado_28" data-name="Trazado 28" class="cls-1" d="M71.87,130.38h0a3.52,3.52,0,0,1-3,1.49c-3,0-5-2.49-5-6,0-3.24,1.74-6.24,5.24-6.24a3.72,3.72,0,0,1,2.74,1h0v-6.49h2.75v17.47H71.87Zm0-7.24a2.25,2.25,0,0,0-2-1c-1.5,0-3,1.5-3,3.74s1.25,3.75,2.75,3.75a2.1,2.1,0,0,0,2-1.75Z"/><path id="Trazado_29" data-name="Trazado 29" class="cls-1" d="M82.61,119.64c3.74,0,5.74,2.75,5.74,6.24,0,3.25-2,6.24-5.74,6.24s-5.74-3-5.74-6.24C77.12,122.64,79.11,119.64,82.61,119.64Zm0,10c2,0,2.74-2.25,2.74-3.75,0-2.49-.75-4-2.74-4-2.25,0-2.75,2.5-2.75,4s.75,3.75,2.75,3.75Z"/><path id="Trazado_30" data-name="Trazado 30" class="cls-1" d="M104.57,130.38h0a3.54,3.54,0,0,1-3,1.49c-3,0-5-2.49-5-6,0-3.24,1.74-6.24,5.24-6.24a3.74,3.74,0,0,1,2.74,1h0v-6.49h2.75v17.47h-2.75Zm-.25-7.24a2.26,2.26,0,0,0-2-1c-1.5,0-3,1.5-3,3.74s1.25,3.75,2.75,3.75a2.11,2.11,0,0,0,2-1.75Z"/><path id="Trazado_31" data-name="Trazado 31" class="cls-1" d="M112.31,126.13c0,1.5.75,3.5,2.75,3.5a4.32,4.32,0,0,0,2.74-1.5l1.75,1.5a6.14,6.14,0,0,1-4.74,2.24c-3,0-5.24-2.49-5.24-6.24,0-3.24,2-6.24,5.49-6.24,3.24,0,4.74,2.5,4.74,6.49Zm4.74-2a2.3,2.3,0,0,0-2.24-2.5c-1.25,0-2.25,1.5-2.5,2.5Z"/><path id="Trazado_32" data-name="Trazado 32" class="cls-1" d="M122.3,114.15H125l-.25,17.47h-2.74Z"/><path id="Trazado_33" data-name="Trazado 33" class="cls-1" d="M135.52,128.38a5.24,5.24,0,0,0,2.75,1,2.18,2.18,0,0,0,2.5-2.25c0-3.24-6.74-1.75-6.74-7.49,0-2.74,2.24-4.74,5.49-4.74a9.32,9.32,0,0,1,4.49,1.25l-1.25,2.25a7.07,7.07,0,0,0-3-1c-1.25,0-2.75.75-2.75,2.24,0,3.25,6.74,2.25,6.74,7.24a5.06,5.06,0,0,1-5.24,5,10.09,10.09,0,0,1-4.49-1.24Z"/><path id="Trazado_34" data-name="Trazado 34" class="cls-1" d="M147,119.89h2.74v11.73H147Zm0-4.49h2.74v2.75H147Z"/><path id="Trazado_35" data-name="Trazado 35" class="cls-1" d="M153.5,128.88a7,7,0,0,0,3,1,1.65,1.65,0,0,0,1.75-1.5c0-2.25-5.49-.5-5.49-5.24,0-2.5,2-3.75,4.24-3.75a7.49,7.49,0,0,1,4,1.25l-1.24,1.75a5.28,5.28,0,0,0-2.5-1,1.65,1.65,0,0,0-1.75,1.5c0,2.24,5.74.75,5.74,5.24,0,2.5-2.24,3.74-4.49,3.74a7.51,7.51,0,0,1-4-1.24Z"/><path id="Trazado_36" data-name="Trazado 36" class="cls-1" d="M170,130.88l-1,.5a4.81,4.81,0,0,1-1.74.49c-2,0-3.25-1-3.25-3.49v-6.24h-1.5v-2.25H164v-4.24h2.75v4.24h2.49v2.25h-2.49v6.49c0,.75.25,1.25,1,1.25a1.91,1.91,0,0,0,1.25-.5Z"/><path id="Trazado_37" data-name="Trazado 37" class="cls-1" d="M173.47,126.13c0,1.5.74,3.5,2.74,3.5a4.34,4.34,0,0,0,2.75-1.5l1.74,1.5a6.11,6.11,0,0,1-4.74,2.24c-3,0-5.24-2.49-5.24-6.24,0-3.24,2-6.24,5.49-6.24,3.25,0,4.74,2.5,4.74,6.49Zm4.74-2a2.3,2.3,0,0,0-2.25-2.5c-1.25,0-2.25,1.5-2.49,2.5Z"/><path id="Trazado_38" data-name="Trazado 38" class="cls-1" d="M183.2,119.89H186v1.5h0a4,4,0,0,1,3.49-2,3.25,3.25,0,0,1,3,2,4.71,4.71,0,0,1,3.74-2c2.75,0,3.24,2,3.24,3.5v8.73h-2.74v-8.23a1.4,1.4,0,0,0-1.25-1.5h-.25a5.11,5.11,0,0,0-2.49,1.5v8h-2.75v-8.24a1.4,1.4,0,0,0-1.25-1.5h-.25a5.11,5.11,0,0,0-2.49,1.5v8H183.2Z"/><path id="Trazado_39" data-name="Trazado 39" class="cls-1" d="M202.17,121.89c2.5-2,4-2.5,5.24-2.5a3.51,3.51,0,0,1,3.5,3v6.49c0,.75.25,1,.75,1,.25,0,.49-.25.74-.25l.75,1.5a4.47,4.47,0,0,1-2.49,1,1.9,1.9,0,0,1-2-1.49,3.58,3.58,0,0,1-3,1.49,3.15,3.15,0,0,1-3.49-3v-.5c0-2,1.25-3.5,6.24-4.49v-.75c0-1.25-.5-1.5-1.25-1.5-.5,0-1.25.25-3,1.5Zm5.74,4c-2.74.5-3.49,1.25-3.49,2.5a1.59,1.59,0,0,0,1.24,1.5h.25a3.09,3.09,0,0,0,2-1Z"/></svg>